<svg id="图层_1" data-name="图层 1" xmlns="http://www.w3.org/2000/svg" viewBox="0 0 532 111.93"><defs><style>.cls-1{fill:#a92d31;}.cls-2,.cls-3{fill:#5f5f5f;}.cls-3{opacity:0.99;}.cls-4{fill:#a12e30;}</style></defs><title>瑞翼数据</title><path class="cls-1" d="M103.28,13.64,122.42,3.36a56.17,56.17,0,0,0-38.27,0Z"/><path class="cls-1" d="M67.58,65.65c0-.34,0-.68,0-1-.29-10.86-.46-17.41,5.6-27.94,4.22-7.33,13.06-13.51,19.26-17.19L72.85,9A55.94,55.94,0,0,0,47.38,53.43Z"/><path class="cls-1" d="M114.14,19.5c6.2,3.68,15,9.86,19.26,17.19,6.06,10.53,5.89,17.08,5.61,27.94,0,.17,0,.34,0,.51,7.28-4.3,15.26-8.93,20.19-11.77A55.93,55.93,0,0,0,133.71,9Z"/><path class="cls-1" d="M67.72,77.77,48.21,66A55.94,55.94,0,0,0,67.62,99.1C67.68,92.78,67.73,84.73,67.72,77.77Z"/><path class="cls-1" d="M138.85,77.21c0,7.08,0,15.4.09,21.89A55.91,55.91,0,0,0,158.4,65.74C152.38,69.23,144.88,73.61,138.85,77.21Z"/><path class="cls-1" d="M128.54,83.53c-8.39,5.25-14,8.39-25.51,8.53h-.28C94.17,92.06,84.26,87.45,78,84c0,8.27-.1,16.85-.15,21.84a56.08,56.08,0,0,0,50.83,0C128.64,100.75,128.56,91.94,128.54,83.53Z"/><circle class="cls-1" cx="103.28" cy="55.97" r="25.68"/><path class="cls-2" d="M254,95.87q0,5.77-4.79,8.22a21.42,21.42,0,0,1-16,0q-4.78-2.45-4.79-8.22V83.42h4.08V95.87q0,6.81,8.69,6.81t8.68-6.81V83.42H254Z"/><path class="cls-2" d="M268.62,105h-4.26V83.42h4.26Z"/><path class="cls-2" d="M321.69,105h-4.25V83.42h4.25Z"/><path class="cls-2" d="M426.87,86.8H415.35v18.48h-4.08V86.8H399.75V83.72h27.12Z"/><path class="cls-1" d="M388.58,86.93a7,7,0,0,0-2.12-2.44,6.8,6.8,0,0,0-3.55-.77h-3.19l-12.41,21.56h4.61l2.84-5.13h0l1.76-3.08h0l.6-1,5.43-9.37h.35a1.61,1.61,0,0,1,1.42.9l4.81,8.06h0l.86,1.44h0l2.73,4.6,2.24,3.61h4.61Z"/><polygon class="cls-1" points="394.96 105.28 385.82 105.28 384.09 101.09 394.13 101.09 394.96 105.28"/><polygon class="cls-1" points="459.12 101.09 451.95 101.09 452.46 102.45 451.26 102.45 451.73 103.71 450.16 103.71 450.81 105.28 459.95 105.28 459.12 101.09"/><polygon class="cls-1" points="449.78 103.71 447.91 103.71 447.32 102.29 449.25 102.29 449.78 103.71"/><polygon class="cls-1" points="448.54 101.5 447.35 101.5 446.97 100.61 448.2 100.61 448.54 101.5"/><polygon class="cls-1" points="451.54 102.02 449.66 102.02 449.07 100.61 451 100.61 451.54 102.02"/><path class="cls-1" d="M452.19,86.93a6.88,6.88,0,0,0-2.13-2.44,6.79,6.79,0,0,0-3.54-.77h-3.19l-12.41,21.56h4.61l2.83-5.13h0l1.76-3.08h0l.59-1,5.43-9.37h.36a1.58,1.58,0,0,1,1.41.9l4.81,8.06h0l.86,1.44h0l2.72,4.6,2.25,3.61h4.61Z"/><polygon class="cls-3" points="296.99 94.5 307.74 83.42 302.6 83.42 294.42 91.86 296.99 94.5"/><polygon class="cls-3" points="293.03 93.3 293.03 93.31 283.46 83.42 278.32 83.42 290.9 96.39 290.9 104.99 295.15 104.99 295.15 96.39 295.59 95.94 293.03 93.3"/><polygon class="cls-2" points="200.61 93.18 200.61 86.5 200.61 83.42 196.54 83.42 196.54 104.99 200.61 104.99 200.61 102.67 200.61 96.13 200.61 93.18"/><path class="cls-2" d="M216.56,95.62q5.5-1.55,5.5-5.78c0-2.39-1.24-4.15-3.72-5.26a14.74,14.74,0,0,0-6.21-1.16h-9.66V86.5h9.66c3.9,0,5.85,1.12,5.85,3.34s-1.95,3.34-5.85,3.34h-9.66v2.95h9.84L217.8,105h4.61Z"/><polygon class="cls-2" points="338.06 101.91 338.06 86.5 338.06 83.42 333.8 83.42 333.8 104.99 338.06 104.99 338.06 101.91"/><path class="cls-2" d="M347.45,83.42h-7.73V86.5h7.73c3.07,0,5.32.39,6.73,1.16q3.19,1.8,3.19,6.54t-3.19,6.42a14,14,0,0,1-6.73,1.29h-7.73V105h7.73q14,0,14-10.79T347.45,83.42Z"/><path class="cls-2" d="M196.78,66.32v-5.8h5.1V42.36h-5.1V36.63h5.1V22h-5.1V16.22h16.13V22h-5.23V36.63h5.23v5.73h-5.23V60.52h5.23v5.8Zm19,1.56V50.69a8.25,8.25,0,0,1,.78-4.23,5,5,0,0,1,4.38-2.5h11.31v-3.7H216.35V34.47h38.2v5.79h-16.5V44h10.33A6.18,6.18,0,0,1,253,45.49a5.07,5.07,0,0,1,1.5,3.73v13q0,5.79-7.27,5.66l-1.59,0V62.12h.84a2.42,2.42,0,0,0,1.69-.44,2.77,2.77,0,0,0,.6-2.06V52.44a3.25,3.25,0,0,0-.56-2.31,2.83,2.83,0,0,0-1.85-.41l-3,0V67.88H237.8V49.69h-5.45V67.88H227V49.69l-3.63,0a1.77,1.77,0,0,0-1.35.47,2.66,2.66,0,0,0-.5,1.82V67.88Zm.56-52.2h5.79v7.08a6.46,6.46,0,0,0,.1,1.69,1.87,1.87,0,0,0,1.75,1l8.52,0V14.71h5.79V25.45l8.08,0A2.56,2.56,0,0,0,248.2,25a3.25,3.25,0,0,0,.5-2.1l0-7.17h5.79V25a6.85,6.85,0,0,1-.75,3.67,5.33,5.33,0,0,1-4.7,2.47l-26.33,0a7.54,7.54,0,0,1-4-.75,5.1,5.1,0,0,1-2.41-4.57Z"/><path class="cls-2" d="M265.88,19.6V14.77h22.26c3.57,0,5.35,1.51,5.35,4.51V26.2a5,5,0,0,1-1.15,3.73c-.8.77-2.2,1.16-4.2,1.16H285V26.36h.78a1.82,1.82,0,0,0,1.32-.34,2.18,2.18,0,0,0,.28-1.32v-3a2.45,2.45,0,0,0-.53-1.88,3.11,3.11,0,0,0-1.54-.22Zm0,5.76V21.44h17.28v3.92Zm0,5.32V26.77h17.28v3.91Zm.18,37.14V63.18a5,5,0,0,0,2.1-.32,5.35,5.35,0,0,0,1.57-1.52h-3.67V57.11h6.11V55h-6.11v-4h6.11V48.84a6.16,6.16,0,0,1-4.07-1.12q-1.64-1.41-1.63-4.58V38.73q0-3.82,1.72-5.07,1.44-1,5.33-1h42.61c2.47,0,4.08.25,4.86.76a4.49,4.49,0,0,1,1.66,1.78,8.73,8.73,0,0,1,.53,3.54v4.76a5.25,5.25,0,0,1-1.44,4.07q-1.35,1.21-4.95,1.28v2.07h6.76v4h-6.76v2.16h6.76v4.23h-3.72A5.65,5.65,0,0,0,321,62.62a6.18,6.18,0,0,0,2.53.56v4.64a12.44,12.44,0,0,1-6.79-2.13,9.62,9.62,0,0,1-3-4.35H275.8a10,10,0,0,1-3.63,4.79A12.88,12.88,0,0,1,266.06,67.82ZM273,39h18.67V37.07H275.49c-1.69,0-2.54.43-2.54,1.28Zm18.67,5.48V42.58H273v.6c0,.83.74,1.25,2.23,1.25ZM278,50.91h33V48.84H278Zm0,6.2h33V55H278ZM296,19.6V14.77H318.2c3.57,0,5.35,1.51,5.35,4.51v6.3c0,2.09-.35,3.52-1.06,4.29s-2.09,1.22-4,1.22H315.1V26.36H316c1.06,0,1.59-.56,1.59-1.69v-3A2.28,2.28,0,0,0,317.2,20a2.48,2.48,0,0,0-1.66-.44Zm0,5.76V21.44h17.38v3.92Zm0,5.32V26.77h17.38v3.91ZM297.41,39h19.38v-.6a1,1,0,0,0-.56-1.06,8,8,0,0,0-2.54-.22H297.41Zm0,5.48h16.25a7.91,7.91,0,0,0,2.66-.25,1.14,1.14,0,0,0,.47-1.1v-.5H297.41Z"/><polygon class="cls-4" points="364.47 14.87 358.71 14.87 358.68 20.94 364.47 20.94 364.47 14.87"/><path class="cls-4" d="M374.58,24.26h7.59V18.47h-6.05l.94-3.79h-5.95a81.92,81.92,0,0,1-2.57,9.18c-.79,1.83-1.86,2.88-3.2,3.13v5.82a12.6,12.6,0,0,0,5.55-2.5A15.84,15.84,0,0,0,374.58,24.26Z"/><polygon class="cls-4" points="341.86 14.96 336.13 14.96 336.07 21.07 341.86 21.07 341.86 14.96"/><path class="cls-4" d="M357.3,32.65v2.29a7.33,7.33,0,0,0,2,5.29,7.5,7.5,0,0,0,5.26,2.26V36.76c-1-.11-1.5-.62-1.5-1.54V32.65Z"/><polygon class="cls-4" points="347.37 42.08 353.16 42.08 353.16 29.9 364.25 29.9 364.25 24.11 353.16 24.11 353.16 14.87 347.37 14.87 347.37 24.11 334.78 24.11 334.78 29.9 347.37 29.9 347.37 42.08"/><path class="cls-4" d="M389.64,34.06l.44-9.8h2.57V18.47H384v5.79h0l-.31,9.52a70.7,70.7,0,0,1-1,10,27.37,27.37,0,0,1-2.25,7,56.25,56.25,0,0,1-3-8.76c-.29-1.26-1-4.48-2-9.68H369.7q1.94,9.84,2.72,12.68A50.16,50.16,0,0,0,377,55.86,29.44,29.44,0,0,1,368,62v5.95a53.49,53.49,0,0,0,6.54-2.75,33.72,33.72,0,0,0,6.08-4.54,29.22,29.22,0,0,0,11.93,7.29V62a26.66,26.66,0,0,1-8.36-5.79,36.09,36.09,0,0,0,3.72-9.33A68.26,68.26,0,0,0,389.64,34.06Z"/><path class="cls-4" d="M336.07,36.76v5.76a7.36,7.36,0,0,0,5.38-2.44,7.22,7.22,0,0,0,1.82-4.92V32.62h-5.83v2.54A1.48,1.48,0,0,1,336.07,36.76Z"/><path class="cls-4" d="M360.8,62.75a29,29,0,0,1-5.32-2.32,39.93,39.93,0,0,0,6.11-4A6.14,6.14,0,0,0,363,52.16v-1h2.13v-5.1H363V43.65h-5.51v2.44H342.36V43.65h-5.51v2.44h-2.07v5.1h2.07a15.66,15.66,0,0,0,.12,2.35,7,7,0,0,0,3.7,4.73l4.23,2.5A19.13,19.13,0,0,1,337.26,63h-2.48v5.1a44.5,44.5,0,0,0,7.42-.44,23.47,23.47,0,0,0,5.3-2.16c1.35-.69,2.26-1.16,2.72-1.41q5,2.82,5.54,3a21.16,21.16,0,0,0,6.92.91h3.07V63.22h-1A15.36,15.36,0,0,1,360.8,62.75Zm-10.67-5.39-4-2.16a12.11,12.11,0,0,1-3-2.1,3.26,3.26,0,0,1-.66-1.78h15a3.59,3.59,0,0,1-2,2.72Z"/><path class="cls-4" d="M461.71,43.74V38H449.63V33.22H455q3.51,0,5.07-1.63a5.17,5.17,0,0,0,1.48-3.79V21.07c0-4.13-1.94-6.2-5.8-6.2H431A6.6,6.6,0,0,0,425.05,18q-1,1.5-1,5.64V57.33a6.24,6.24,0,0,1-.66,3.26,5.11,5.11,0,0,1-2.48,1.81v5.83a11.11,11.11,0,0,0,5.77-2.63,10,10,0,0,0,3.16-7.49v-24h0V23.52h0a3,3,0,0,1,.72-2.26c.44-.4,1.53-.6,3.29-.6h19.54c1.54,0,2.31.64,2.31,1.91v2.76a2.56,2.56,0,0,1-.28,1.28c-.29.54-1.12.82-2.47.82H431.69v5.79H443.8V38H431.53v5.79H443.8v4.79h-3.41q-4.26,0-5.86,1.1-2.31,1.59-2.31,5.63V61c0,2.42.53,4.15,1.59,5.17q1.81,1.75,5.61,1.75H455a6.66,6.66,0,0,0,5-1.84,6.35,6.35,0,0,0,1.57-4.7V54.45q0-5.93-7.46-5.92h-4.44V43.74Zm-8,10.71c1.23,0,1.85.74,1.85,2.22V59a5.56,5.56,0,0,1-.29,2.28c-.25.46-1.17.69-2.78.69H440c-1.23,0-1.84-.63-1.84-1.91V56.67a2.52,2.52,0,0,1,.56-1.81,2.18,2.18,0,0,1,1.56-.41Z"/><path class="cls-4" d="M421.45,35a25.19,25.19,0,0,0-5.14,2.07v-11h5.14v-6h-5.14v-5.2h-5.79v5.2h-6.89v6h6.89V41a23.64,23.64,0,0,1-3.45,1.73,23.12,23.12,0,0,1-3.63.87v6.08a40.37,40.37,0,0,0,4-.82,29.83,29.83,0,0,0,3.1-1.25v11q0,3.54-4.7,3.54h-1.5v5.79h3.07a9.93,9.93,0,0,0,5.73-1.47q3.19-2.22,3.19-7V43.58a29.62,29.62,0,0,1,5.14-2.6Z"/></svg>