<svg id="图层_1" data-name="图层 1" xmlns="http://www.w3.org/2000/svg" viewBox="0 0 111.81 111.93"><defs><style>.cls-1{fill:#a92d31;}</style></defs><title>瑞翼数据</title><path class="cls-1" d="M55.91,13.64,75,3.36a56.17,56.17,0,0,0-38.27,0Z"/><path class="cls-1" d="M20.21,65.65l0-1c-.29-10.86-.46-17.41,5.6-27.94C30,29.36,38.84,23.18,45,19.5L25.48,9A55.92,55.92,0,0,0,0,53.43Z"/><path class="cls-1" d="M66.76,19.5C73,23.18,81.81,29.36,86,36.69c6.06,10.53,5.89,17.08,5.6,27.94,0,.17,0,.34,0,.51,7.28-4.3,15.27-8.93,20.19-11.77A55.93,55.93,0,0,0,86.33,9Z"/><path class="cls-1" d="M20.34,77.77.83,66A56,56,0,0,0,20.25,99.1C20.3,92.78,20.35,84.73,20.34,77.77Z"/><path class="cls-1" d="M91.47,77.21c0,7.08,0,15.4.1,21.89A55.89,55.89,0,0,0,111,65.74C105,69.23,97.5,73.61,91.47,77.21Z"/><path class="cls-1" d="M81.17,83.53c-8.4,5.25-14,8.39-25.52,8.53h-.28c-8.58,0-18.49-4.61-24.73-8.06,0,8.27-.1,16.85-.15,21.84a56.08,56.08,0,0,0,50.83,0C81.27,100.75,81.19,91.94,81.17,83.53Z"/><circle class="cls-1" cx="55.91" cy="55.97" r="25.68"/></svg>