<?xml version="1.0" encoding="utf-8"?>
<!-- Generator: Adobe Illustrator 22.0.0, SVG Export Plug-In . SVG Version: 6.00 Build 0)  -->
<svg version="1.1" id="图层_1" xmlns="http://www.w3.org/2000/svg" xmlns:xlink="http://www.w3.org/1999/xlink" x="0px" y="0px"
	 viewBox="0 0 16 16" style="enable-background:new 0 0 16 16;" xml:space="preserve">
<style type="text/css">
	.st0{fill:#B8CEE0;}
	.st1{fill:#1A75CA;}
</style>
<g>
	<path class="st0" d="M8,16c-4.4,0-8-3.6-8-8s3.6-8,8-8s8,3.6,8,8S12.4,16,8,16z M8,13.6c3.1,0,5.6-2.5,5.6-5.6S11.1,2.4,8,2.4
		C4.9,2.4,2.4,4.9,2.4,8S4.9,13.6,8,13.6z"/>
	<path class="st1" d="M4.4,0.8C5.5,0.3,6.8,0,8,0c1.3,0,2.6,0.3,3.7,0.9L10.6,3C9.8,2.6,8.9,2.4,8,2.4C7.1,2.4,6.3,2.6,5.5,3
		L4.4,0.8z"/>
</g>
</svg>
