<svg id="图层_1" data-name="图层 1" xmlns="http://www.w3.org/2000/svg" viewBox="0 0 460 111.93"><defs><style>.cls-1,.cls-2{fill:#fff;}.cls-2{opacity:0.99;}</style></defs><title>瑞翼数据</title><path class="cls-1" d="M77.51,13.64,96.64,3.36a56.17,56.17,0,0,0-38.27,0Z"/><path class="cls-1" d="M41.81,65.65l0-1c-.28-10.86-.46-17.41,5.6-27.94C51.6,29.36,60.44,23.18,66.64,19.5L47.08,9A55.92,55.92,0,0,0,21.6,53.43Z"/><path class="cls-1" d="M88.36,19.5c6.21,3.68,15,9.86,19.27,17.19,6.06,10.53,5.89,17.08,5.6,27.94,0,.17,0,.34,0,.51,7.28-4.3,15.27-8.93,20.19-11.77A56,56,0,0,0,107.94,9Z"/><path class="cls-1" d="M41.94,77.77,22.44,66A55.89,55.89,0,0,0,41.85,99.1C41.9,92.78,42,84.73,41.94,77.77Z"/><path class="cls-1" d="M113.07,77.21c0,7.08,0,15.4.1,21.89a55.89,55.89,0,0,0,19.45-33.36C126.6,69.23,119.1,73.61,113.07,77.21Z"/><path class="cls-1" d="M102.77,83.53c-8.4,5.25-14,8.39-25.52,8.53H77c-8.58,0-18.49-4.61-24.73-8.06,0,8.27-.1,16.85-.15,21.84a56.08,56.08,0,0,0,50.83,0C102.87,100.75,102.79,91.94,102.77,83.53Z"/><circle class="cls-1" cx="77.51" cy="55.97" r="25.68"/><path class="cls-1" d="M228.22,95.87q0,5.77-4.79,8.22a21.42,21.42,0,0,1-16,0q-4.78-2.45-4.78-8.22V83.42h4.07V95.87q0,6.81,8.69,6.81t8.68-6.81V83.42h4.08Z"/><path class="cls-1" d="M242.84,105h-4.25V83.42h4.25Z"/><path class="cls-1" d="M295.92,105h-4.26V83.42h4.26Z"/><path class="cls-1" d="M401.09,86.8H389.57v18.48h-4.08V86.8H374V83.72h27.12Z"/><path class="cls-1" d="M362.81,86.93a6.88,6.88,0,0,0-2.13-2.44,6.8,6.8,0,0,0-3.55-.77h-3.19l-12.4,21.56h4.61l2.83-5.13h0l1.76-3.08h0l.6-1,5.43-9.37h.35a1.6,1.6,0,0,1,1.42.9l4.81,8.06h0l.86,1.44h0l2.72,4.6,2.25,3.61h4.6Z"/><polygon class="cls-1" points="369.19 105.28 360.05 105.28 358.31 101.09 368.36 101.09 369.19 105.28"/><polygon class="cls-1" points="433.34 101.09 426.17 101.09 426.69 102.45 425.48 102.45 425.96 103.71 424.38 103.71 425.03 105.28 434.17 105.28 433.34 101.09"/><polygon class="cls-1" points="424.01 103.71 422.13 103.71 421.55 102.29 423.47 102.29 424.01 103.71"/><polygon class="cls-1" points="422.76 101.5 421.57 101.5 421.2 100.61 422.42 100.61 422.76 101.5"/><polygon class="cls-1" points="425.76 102.02 423.88 102.02 423.3 100.61 425.23 100.61 425.76 102.02"/><path class="cls-1" d="M426.41,86.93a6.88,6.88,0,0,0-2.13-2.44,6.76,6.76,0,0,0-3.54-.77h-3.19l-12.41,21.56h4.61l2.84-5.13h0l1.76-3.08h0l.59-1,5.44-9.37h.35a1.61,1.61,0,0,1,1.42.9L427,95.63h0l.86,1.44h0l2.73,4.6,2.24,3.61h4.61Z"/><polygon class="cls-2" points="271.21 94.5 281.96 83.42 276.82 83.42 268.65 91.86 271.21 94.5"/><polygon class="cls-2" points="267.26 93.3 267.25 93.31 257.68 83.42 252.54 83.42 265.13 96.39 265.13 104.99 269.38 104.99 269.38 96.39 269.81 95.94 267.26 93.3"/><polygon class="cls-1" points="174.84 93.18 174.84 86.5 174.84 83.42 170.76 83.42 170.76 104.99 174.84 104.99 174.84 102.67 174.84 96.13 174.84 93.18"/><path class="cls-1" d="M190.79,95.62q5.49-1.55,5.49-5.78c0-2.39-1.24-4.15-3.72-5.26a14.69,14.69,0,0,0-6.2-1.16h-9.67V86.5h9.67c3.9,0,5.85,1.12,5.85,3.34s-2,3.34-5.85,3.34h-9.67v2.95h9.84L192,105h4.61Z"/><polygon class="cls-1" points="312.28 101.91 312.28 86.5 312.28 83.42 308.02 83.42 308.02 104.99 312.28 104.99 312.28 101.91"/><path class="cls-1" d="M321.67,83.42H314V86.5h7.72q4.6,0,6.74,1.16c2.12,1.2,3.19,3.38,3.19,6.54s-1.07,5.31-3.19,6.42a14.11,14.11,0,0,1-6.74,1.29H314V105h7.72q14,0,14-10.79T321.67,83.42Z"/><path class="cls-1" d="M171,66.32v-5.8h5.11V42.36H171V36.63h5.11V22H171V16.22h16.13V22H181.9V36.63h5.23v5.73H181.9V60.52h5.23v5.8Zm19,1.56V50.69a8.25,8.25,0,0,1,.78-4.23,5.05,5.05,0,0,1,4.39-2.5h11.3v-3.7H190.57V34.47h38.21v5.79H212.27V44h10.34a6.15,6.15,0,0,1,4.57,1.53,5.07,5.07,0,0,1,1.5,3.73v13q0,5.79-7.26,5.66l-1.6,0V62.12h.85a2.45,2.45,0,0,0,1.69-.44,2.82,2.82,0,0,0,.59-2.06V52.44a3.25,3.25,0,0,0-.56-2.31,2.81,2.81,0,0,0-1.85-.41l-3,0V67.88H212V49.69h-5.44V67.88h-5.33V49.69l-3.63,0a1.78,1.78,0,0,0-1.35.47,2.66,2.66,0,0,0-.5,1.82V67.88Zm.56-52.2h5.8v7.08a7.36,7.36,0,0,0,.09,1.69,1.88,1.88,0,0,0,1.75,1l8.52,0V14.71h5.79V25.45l8.08,0a2.54,2.54,0,0,0,1.85-.47,3.25,3.25,0,0,0,.5-2.1l0-7.17h5.79V25a6.85,6.85,0,0,1-.75,3.67,5.33,5.33,0,0,1-4.7,2.47l-26.33,0a7.57,7.57,0,0,1-4-.75,5.12,5.12,0,0,1-2.41-4.57Z"/><path class="cls-1" d="M240.1,19.6V14.77h22.26c3.57,0,5.36,1.51,5.36,4.51V26.2a5,5,0,0,1-1.16,3.73c-.79.77-2.19,1.16-4.2,1.16h-3.1V26.36h.79a1.81,1.81,0,0,0,1.31-.34,2.18,2.18,0,0,0,.28-1.32v-3a2.41,2.41,0,0,0-.53-1.88,3.08,3.08,0,0,0-1.53-.22Zm0,5.76V21.44h17.28v3.92Zm0,5.32V26.77h17.28v3.91Zm.19,37.14V63.18a5,5,0,0,0,2.1-.32A5.34,5.34,0,0,0,244,61.34h-3.66V57.11h6.1V55h-6.1v-4h6.1V48.84a6.18,6.18,0,0,1-4.07-1.12c-1.08-.94-1.63-2.47-1.63-4.58V38.73q0-3.82,1.73-5.07,1.44-1,5.32-1h42.62c2.46,0,4.08.25,4.85.76a4.42,4.42,0,0,1,1.66,1.78,8.73,8.73,0,0,1,.53,3.54v4.76A5.25,5.25,0,0,1,296,47.56c-.9.81-2.54,1.24-4.95,1.28v2.07h6.77v4H291v2.16h6.77v4.23h-3.73a5.65,5.65,0,0,0,1.19,1.28,6.24,6.24,0,0,0,2.54.56v4.64a12.45,12.45,0,0,1-6.8-2.13,9.68,9.68,0,0,1-3-4.35H250a10,10,0,0,1-3.64,4.79A12.87,12.87,0,0,1,240.29,67.82ZM247.18,39h18.66V37.07H249.71c-1.69,0-2.53.43-2.53,1.28Zm18.66,5.48V42.58H247.18v.6c0,.83.74,1.25,2.22,1.25Zm-13.65,6.48h33V48.84h-33Zm0,6.2h33V55h-33Zm18-37.51V14.77h22.23c3.57,0,5.36,1.51,5.36,4.51v6.3c0,2.09-.36,3.52-1.07,4.29s-2.08,1.22-4,1.22h-3.39V26.36h.88c1.06,0,1.6-.56,1.6-1.69v-3a2.27,2.27,0,0,0-.38-1.59,2.46,2.46,0,0,0-1.66-.44Zm0,5.76V21.44h17.38v3.92Zm0,5.32V26.77h17.38v3.91ZM271.63,39H291v-.6a1,1,0,0,0-.56-1.06,8,8,0,0,0-2.54-.22H271.63Zm0,5.48h16.25a7.86,7.86,0,0,0,2.66-.25c.32-.17.47-.53.47-1.1v-.5H271.63Z"/><polygon class="cls-1" points="338.69 14.87 332.93 14.87 332.9 20.94 338.69 20.94 338.69 14.87"/><path class="cls-1" d="M331.52,32.65v2.29a7.37,7.37,0,0,0,2,5.29,7.52,7.52,0,0,0,5.27,2.26V36.76c-1-.11-1.51-.62-1.51-1.54V32.65Z"/><path class="cls-1" d="M348.81,24.26h7.59V18.47h-6.06l.94-3.79h-5.95a81.92,81.92,0,0,1-2.57,9.18c-.79,1.83-1.86,2.88-3.19,3.13v5.82a12.6,12.6,0,0,0,5.54-2.5A15.85,15.85,0,0,0,348.81,24.26Z"/><polygon class="cls-1" points="316.08 14.96 310.35 14.96 310.29 21.07 316.08 21.07 316.08 14.96"/><polygon class="cls-1" points="321.6 42.08 327.39 42.08 327.39 29.9 338.47 29.9 338.47 24.11 327.39 24.11 327.39 14.87 321.6 14.87 321.6 24.11 309.01 24.11 309.01 29.9 321.6 29.9 321.6 42.08"/><path class="cls-1" d="M363.87,34.06l.44-9.8h2.56V18.47h-8.64v5.79h0L358,33.78a72.31,72.31,0,0,1-1,10,27.4,27.4,0,0,1-2.26,7,56.11,56.11,0,0,1-3-8.76c-.3-1.26-1-4.48-2-9.68h-5.76q1.93,9.84,2.72,12.68a49.71,49.71,0,0,0,4.55,10.87,29.6,29.6,0,0,1-9,6.13v5.95a53.49,53.49,0,0,0,6.54-2.75,33.37,33.37,0,0,0,6.08-4.54,29.22,29.22,0,0,0,11.93,7.29V62a26.66,26.66,0,0,1-8.36-5.79,36.09,36.09,0,0,0,3.72-9.33A68.23,68.23,0,0,0,363.87,34.06Z"/><path class="cls-1" d="M335,62.75a29,29,0,0,1-5.33-2.32,39.36,39.36,0,0,0,6.11-4,6.14,6.14,0,0,0,1.41-4.32v-1h2.13v-5.1h-2.13V43.65h-5.51v2.44H316.58V43.65h-5.51v2.44H309v5.1h2.06a15.3,15.3,0,0,0,.13,2.35,7,7,0,0,0,3.69,4.73l4.23,2.5A19.13,19.13,0,0,1,311.48,63H309v5.1a44.66,44.66,0,0,0,7.42-.44,23.44,23.44,0,0,0,5.29-2.16c1.36-.69,2.26-1.16,2.72-1.41q5,2.82,5.55,3a21.11,21.11,0,0,0,6.92.91H340V63.22h-1A15.28,15.28,0,0,1,335,62.75Zm-10.68-5.39-4-2.16a12,12,0,0,1-3-2.1,3.11,3.11,0,0,1-.66-1.78h15a3.63,3.63,0,0,1-2,2.72Z"/><path class="cls-1" d="M310.29,36.76v5.76a7.4,7.4,0,0,0,5.39-2.44,7.21,7.21,0,0,0,1.81-4.92V32.62h-5.82v2.54A1.49,1.49,0,0,1,310.29,36.76Z"/><path class="cls-1" d="M395.67,35a25.42,25.42,0,0,0-5.14,2.07v-11h5.14v-6h-5.14v-5.2h-5.79v5.2h-6.89v6h6.89V41a24.16,24.16,0,0,1-3.44,1.73,23.6,23.6,0,0,1-3.64.87v6.08a39.71,39.71,0,0,0,4-.82,28.94,28.94,0,0,0,3.1-1.25v11q0,3.54-4.7,3.54h-1.5v5.79h3.07a9.93,9.93,0,0,0,5.73-1.47q3.2-2.22,3.19-7V43.58a30,30,0,0,1,5.14-2.6Z"/><path class="cls-1" d="M435.94,43.74V38H423.85V33.22h5.36q3.5,0,5.07-1.63a5.2,5.2,0,0,0,1.47-3.79V21.07q0-6.19-5.79-6.2H405.22a6.61,6.61,0,0,0-6,3.13q-1,1.5-1,5.64V57.33a6.24,6.24,0,0,1-.66,3.26,5.08,5.08,0,0,1-2.47,1.81v5.83a11.11,11.11,0,0,0,5.76-2.63,9.91,9.91,0,0,0,3.16-7.49V33.94h0V23.36h0a2.93,2.93,0,0,1,.71-2.1c.44-.4,1.54-.6,3.29-.6h19.54c1.54,0,2.32.64,2.32,1.91v2.76a2.55,2.55,0,0,1-.29,1.28c-.29.54-1.11.82-2.47.82H405.91v5.79H418V38H405.75v5.79H418v4.79h-3.42q-4.26,0-5.85,1.1-2.33,1.59-2.32,5.63V61c0,2.42.53,4.15,1.6,5.17q1.81,1.75,5.6,1.75h15.57a6.66,6.66,0,0,0,5-1.84,6.31,6.31,0,0,0,1.57-4.7V54.45q0-5.93-7.45-5.92h-4.45V43.74Zm-8,10.71c1.23,0,1.85.74,1.85,2.22V59a5.62,5.62,0,0,1-.28,2.28q-.37.69-2.79.69H414.21c-1.24,0-1.85-.63-1.85-1.91V56.67a2.56,2.56,0,0,1,.56-1.81,2.21,2.21,0,0,1,1.57-.41Z"/></svg>