<?xml version="1.0" encoding="utf-8"?>
<!-- Generator: Adobe Illustrator 22.0.0, SVG Export Plug-In . SVG Version: 6.00 Build 0)  -->
<svg version="1.1" id="图层_1" xmlns="http://www.w3.org/2000/svg" xmlns:xlink="http://www.w3.org/1999/xlink" x="0px" y="0px"
	 viewBox="0 0 61 56" style="enable-background:new 0 0 61 56;" xml:space="preserve">
<style type="text/css">
	.st0{fill:#E0E0E0;}
	.st1{opacity:0.5;}
	.st2{fill:url(#Rectangle-path_10_);}
	.st3{fill:#FAFAFA;}
	.st4{fill:url(#Rectangle-path_11_);}
	.st5{fill:url(#Shape_7_);}
	.st6{fill:#5190CB;}
	.st7{fill:url(#Rectangle-path_12_);}
	.st8{fill:#FFFFFF;}
	.st9{fill:url(#Rectangle-path_13_);}
	.st10{fill:url(#Shape_8_);}
	.st11{fill:#4083C5;}
	.st12{opacity:0.5;fill:#4D8AF0;enable-background:new    ;}
	.st13{opacity:0.5;fill:#FDD835;enable-background:new    ;}
	.st14{opacity:0.5;fill:#F55F44;enable-background:new    ;}
	.st15{opacity:0.5;fill:#4083C5;enable-background:new    ;}
</style>
<title>undraw_no_data_qbuo</title>
<desc>Created with Sketch.</desc>
<g id="Guide">
	<g id="空状态" transform="translate(-677.000000, -319.000000)">
		<g id="Group-7" transform="translate(107.000000, 200.000000)">
			<g id="Group-20" transform="translate(1.000000, 97.000000)">
				<g id="undraw_no_data_qbuo" transform="translate(569.000000, 20.000000)">
					
						<rect id="Rectangle-path" x="9.5" y="6.2" transform="matrix(0.9777 -0.2098 0.2098 0.9777 -5.4237 6.0282)" class="st0" width="32.5" height="44.8"/>
					<g id="Group" transform="translate(5.792574, 4.084507)" class="st1">
						
							<linearGradient id="Rectangle-path_10_" gradientUnits="userSpaceOnUse" x1="-908.7448" y1="549.8854" x2="-908.7448" y2="550.8854" gradientTransform="matrix(30.6601 -6.5785 -9.0894 -42.3621 32884.7383 17361.7422)">
							<stop  offset="0" style="stop-color:#808080;stop-opacity:0.25"/>
							<stop  offset="0.54" style="stop-color:#808080;stop-opacity:0.12"/>
							<stop  offset="1" style="stop-color:#808080;stop-opacity:0.1"/>
						</linearGradient>
						<polygon id="Rectangle-path_1_" class="st2" points="0,6.6 30.7,0 39.8,42.4 9.1,49 						"/>
					</g>
					
						<rect id="Rectangle-path_2_" x="10.4" y="7.2" transform="matrix(0.9777 -0.2098 0.2098 0.9777 -5.3918 6.0177)" class="st3" width="30.6" height="42.4"/>
					
						<linearGradient id="Rectangle-path_11_" gradientUnits="userSpaceOnUse" x1="-875.6561" y1="201.6775" x2="-875.6561" y2="251.1275" gradientTransform="matrix(14.8228 -3.1804 -0.7704 -3.5906 13294.7949 -1407.8943)">
						<stop  offset="0" style="stop-color:#808080;stop-opacity:0.25"/>
						<stop  offset="0.54" style="stop-color:#808080;stop-opacity:0.12"/>
						<stop  offset="1" style="stop-color:#808080;stop-opacity:0.1"/>
					</linearGradient>
					<polygon id="Rectangle-path_3_" class="st4" points="13.5,7.5 28.3,4.3 29.1,7.9 14.2,11.1 					"/>
					
						<linearGradient id="Shape_7_" gradientUnits="userSpaceOnUse" x1="-709.4757" y1="312.2854" x2="-709.4757" y2="370.7154" gradientTransform="matrix(4.2415 0 0 -4.3359 3029.8494 1967.1241)">
						<stop  offset="0" style="stop-color:#808080;stop-opacity:0.25"/>
						<stop  offset="0.54" style="stop-color:#808080;stop-opacity:0.12"/>
						<stop  offset="1" style="stop-color:#808080;stop-opacity:0.1"/>
					</linearGradient>
					<path id="Shape" class="st5" d="M20.1,2.4C19,2.6,18.3,3.8,18.5,5s1.4,1.9,2.5,1.7c1.1-0.2,1.9-1.4,1.6-2.6
						C22.4,2.9,21.3,2.2,20.1,2.4z M20.8,5.7c-0.5,0.1-1-0.1-1.3-0.5c-0.3-0.4-0.3-1,0-1.4c0.3-0.4,0.8-0.7,1.3-0.6s0.9,0.5,1,1
						c0.1,0.3,0,0.7-0.2,0.9C21.4,5.5,21.2,5.7,20.8,5.7z"/>
					
						<rect id="Rectangle-path_4_" x="13.8" y="5.7" transform="matrix(0.9777 -0.2098 0.2098 0.9777 -1.0947 4.6167)" class="st6" width="14.8" height="3.5"/>
					<path id="Shape_1_" class="st6" d="M20.1,2.4c-1.1,0.2-1.8,1.3-1.6,2.5C18.8,6,19.9,6.7,21,6.5c1.1-0.2,1.8-1.3,1.6-2.5
						c-0.1-0.5-0.4-1-0.9-1.3C21.2,2.4,20.7,2.3,20.1,2.4z M20.8,5.6c-0.5,0.1-1-0.1-1.2-0.5c-0.3-0.4-0.3-0.9,0-1.3
						s0.7-0.6,1.2-0.5c0.5,0.1,0.9,0.5,1,0.9C21.9,4.8,21.5,5.5,20.8,5.6z"/>
					<rect id="Rectangle-path_5_" x="19.2" y="8.7" class="st0" width="32.5" height="44.8"/>
					<g id="Group_1_" transform="translate(19.679898, 9.431498)" class="st1">
						
							<linearGradient id="Rectangle-path_12_" gradientUnits="userSpaceOnUse" x1="-918.5541" y1="-160.7557" x2="-918.5541" y2="422.6543" gradientTransform="matrix(31.3579 0 0 -43.3262 28819.6055 23819.6504)">
							<stop  offset="0" style="stop-color:#808080;stop-opacity:0.25"/>
							<stop  offset="0.54" style="stop-color:#808080;stop-opacity:0.12"/>
							<stop  offset="1" style="stop-color:#808080;stop-opacity:0.1"/>
						</linearGradient>
						<rect id="Rectangle-path_6_" x="0" y="0" class="st7" width="31.4" height="43.3"/>
					</g>
					<rect id="Rectangle-path_7_" x="20.1" y="9.8" class="st8" width="30.6" height="42.4"/>
					
						<linearGradient id="Rectangle-path_13_" gradientUnits="userSpaceOnUse" x1="-867.2211" y1="275.7218" x2="-867.2211" y2="325.1718" gradientTransform="matrix(15.1602 0 0 -3.6723 13182.6699 1593.8304)">
						<stop  offset="0" style="stop-color:#808080;stop-opacity:0.25"/>
						<stop  offset="0.54" style="stop-color:#808080;stop-opacity:0.12"/>
						<stop  offset="1" style="stop-color:#808080;stop-opacity:0.1"/>
					</linearGradient>
					<rect id="Rectangle-path_8_" x="27.8" y="7.9" class="st9" width="15.2" height="3.7"/>
					
						<linearGradient id="Shape_8_" gradientUnits="userSpaceOnUse" x1="-709.3433" y1="276.8674" x2="-709.3433" y2="335.3074" gradientTransform="matrix(4.239 0 0 -4.34 3042.3081 1971.4631)">
						<stop  offset="0" style="stop-color:#808080;stop-opacity:0.25"/>
						<stop  offset="0.54" style="stop-color:#808080;stop-opacity:0.12"/>
						<stop  offset="1" style="stop-color:#808080;stop-opacity:0.1"/>
					</linearGradient>
					<path id="Shape_2_" class="st10" d="M35.4,4.3c-1.2,0-2.1,1-2.1,2.2s0.9,2.2,2.1,2.2c1.2,0,2.1-1,2.1-2.2S36.6,4.3,35.4,4.3z
						 M35.4,7.8c-0.5,0-1-0.3-1.2-0.8c-0.2-0.5-0.1-1,0.3-1.4c0.4-0.4,0.9-0.5,1.4-0.3c0.5,0.2,0.8,0.7,0.8,1.2
						C36.6,7.2,36.1,7.7,35.4,7.8L35.4,7.8z"/>
					<rect id="Rectangle-path_9_" x="28" y="7.8" class="st11" width="14.8" height="3.5"/>
					<path id="Shape_3_" class="st11" d="M35.4,4.3c-0.8,0-1.6,0.5-1.9,1.3S33.4,7.3,34,7.9c0.6,0.6,1.5,0.8,2.3,0.4
						C37,8,37.5,7.3,37.5,6.4C37.5,5.3,36.6,4.3,35.4,4.3z M35.4,7.6c-0.7,0-1.2-0.5-1.2-1.2s0.5-1.2,1.2-1.2s1.2,0.5,1.2,1.2
						c0,0.3-0.1,0.6-0.4,0.8C36,7.5,35.7,7.6,35.4,7.6L35.4,7.6z"/>
					<g id="Group_2_" transform="translate(0.445583, 54.732394)" class="st1">
					</g>
					<path id="Shape_4_" class="st12" d="M57.3,57.4c-0.2-0.1-0.2-0.2-0.2-0.4c0,0,0,0,0,0c0-0.1,0-0.1-0.1-0.2
						c-0.1,0-0.2,0-0.2,0.1c0,0,0,0,0,0c-0.1,0.2-0.2,0.2-0.4,0.2c0,0,0,0,0,0c-0.1,0-0.1,0-0.2,0.1c0,0.1,0,0.2,0.1,0.2
						c0,0,0,0,0,0c0.2,0.1,0.2,0.2,0.2,0.4c0,0,0,0,0,0c0,0.1,0,0.1,0.1,0.2c0.1,0,0.2,0,0.2-0.1c0,0,0,0,0,0
						c0.1-0.2,0.2-0.2,0.4-0.2c0,0,0,0,0,0c0.1,0,0.1,0,0.2-0.1C57.4,57.5,57.4,57.4,57.3,57.4C57.3,57.4,57.3,57.4,57.3,57.4z"/>
					<path id="Shape_5_" class="st13" d="M10.1,42.1c-0.2-0.1-0.2-0.2-0.2-0.4c0,0,0,0,0,0c0-0.1,0-0.1-0.1-0.2
						c-0.1,0-0.2,0-0.2,0.1c0,0,0,0,0,0c-0.1,0.2-0.2,0.2-0.4,0.2c0,0,0,0,0,0c-0.1,0-0.1,0-0.2,0.1c0,0.1,0,0.2,0.1,0.2
						c0,0,0,0,0,0c0.2,0.1,0.2,0.2,0.2,0.4c0,0,0,0,0,0c0,0.1,0,0.1,0.1,0.2c0.1,0,0.2,0,0.2-0.1c0,0,0,0,0,0
						c0.1-0.2,0.2-0.2,0.4-0.2c0,0,0,0,0,0c0.1,0,0.1,0,0.2-0.1C10.3,42.3,10.2,42.2,10.1,42.1C10.2,42.2,10.2,42.1,10.1,42.1z"/>
					<path id="Shape_6_" class="st13" d="M49.4,5.1c-0.2-0.1-0.2-0.2-0.2-0.4c0,0,0,0,0,0c0-0.1,0-0.1-0.1-0.2c-0.1,0-0.2,0-0.2,0.1
						c0,0,0,0,0,0c-0.1,0.2-0.2,0.2-0.4,0.2c0,0,0,0,0,0c-0.1,0-0.1,0-0.2,0.1s0,0.2,0.1,0.2c0,0,0,0,0,0c0.2,0.1,0.2,0.2,0.2,0.4
						c0,0,0,0,0,0c0,0.1,0,0.1,0.1,0.2c0.1,0,0.2,0,0.2-0.1c0,0,0,0,0,0c0.1-0.2,0.2-0.2,0.4-0.2c0,0,0,0,0,0c0.1,0,0.1,0,0.2-0.1
						C49.5,5.2,49.5,5.1,49.4,5.1C49.4,5.1,49.4,5.1,49.4,5.1z"/>
					<circle id="Oval" class="st14" cx="60.3" cy="23.4" r="1"/>
					<circle id="Oval_1_" class="st14" cx="17.1" cy="55.4" r="1"/>
					<circle id="Oval_2_" class="st14" cx="54.6" cy="35.4" r="1"/>
					<circle id="Oval_3_" class="st12" cx="6.5" cy="7.2" r="1"/>
					<circle id="Oval_4_" class="st15" cx="0.6" cy="22.4" r="1"/>
				</g>
			</g>
		</g>
	</g>
</g>
</svg>
